<svg width="161" height="22" viewBox="0 0 161 22" fill="none" xmlns="http://www.w3.org/2000/svg">
<path d="M6.46875 6.9082L2.64551 18H0.333984L5.15039 5.20312H6.62695L6.46875 6.9082ZM9.66797 18L5.83594 6.9082L5.66895 5.20312H7.1543L11.9883 18H9.66797ZM9.4834 13.2539V15.0029H2.52246V13.2539H9.4834ZM19.8193 10.3184V21.6562H17.7012V8.49023H19.6523L19.8193 10.3184ZM26.0156 13.1572V13.3418C26.0156 14.0332 25.9336 14.6748 25.7695 15.2666C25.6113 15.8525 25.374 16.3652 25.0576 16.8047C24.7471 17.2383 24.3633 17.5752 23.9062 17.8154C23.4492 18.0557 22.9219 18.1758 22.3242 18.1758C21.7324 18.1758 21.2139 18.0674 20.7686 17.8506C20.3291 17.6279 19.957 17.3145 19.6523 16.9102C19.3477 16.5059 19.1016 16.0312 18.9141 15.4863C18.7324 14.9355 18.6035 14.332 18.5273 13.6758V12.9639C18.6035 12.2666 18.7324 11.6338 18.9141 11.0654C19.1016 10.4971 19.3477 10.0078 19.6523 9.59766C19.957 9.1875 20.3291 8.87109 20.7686 8.64844C21.208 8.42578 21.7207 8.31445 22.3066 8.31445C22.9043 8.31445 23.4346 8.43164 23.8975 8.66602C24.3604 8.89453 24.75 9.22266 25.0664 9.65039C25.3828 10.0723 25.6201 10.582 25.7783 11.1797C25.9365 11.7715 26.0156 12.4307 26.0156 13.1572ZM23.8975 13.3418V13.1572C23.8975 12.7178 23.8564 12.3105 23.7744 11.9355C23.6924 11.5547 23.5635 11.2207 23.3877 10.9336C23.2119 10.6465 22.9863 10.4238 22.7109 10.2656C22.4414 10.1016 22.1162 10.0195 21.7354 10.0195C21.3604 10.0195 21.0381 10.084 20.7686 10.2129C20.499 10.3359 20.2734 10.5088 20.0918 10.7314C19.9102 10.9541 19.7695 11.2148 19.6699 11.5137C19.5703 11.8066 19.5 12.126 19.459 12.4717V14.1768C19.5293 14.5986 19.6494 14.9854 19.8193 15.3369C19.9893 15.6885 20.2295 15.9697 20.54 16.1807C20.8564 16.3857 21.2607 16.4883 21.7529 16.4883C22.1338 16.4883 22.459 16.4062 22.7285 16.2422C22.998 16.0781 23.2178 15.8525 23.3877 15.5654C23.5635 15.2725 23.6924 14.9355 23.7744 14.5547C23.8564 14.1738 23.8975 13.7695 23.8975 13.3418ZM29.9443 10.3008V18H27.8262V8.49023H29.8477L29.9443 10.3008ZM32.8535 8.42871L32.8359 10.3975C32.707 10.374 32.5664 10.3564 32.4141 10.3447C32.2676 10.333 32.1211 10.3271 31.9746 10.3271C31.6113 10.3271 31.292 10.3799 31.0166 10.4854C30.7412 10.585 30.5098 10.7314 30.3223 10.9248C30.1406 11.1123 30 11.3408 29.9004 11.6104C29.8008 11.8799 29.7422 12.1816 29.7246 12.5156L29.2412 12.5508C29.2412 11.9531 29.2998 11.3994 29.417 10.8896C29.5342 10.3799 29.71 9.93164 29.9443 9.54492C30.1846 9.1582 30.4834 8.85645 30.8408 8.63965C31.2041 8.42285 31.623 8.31445 32.0977 8.31445C32.2266 8.31445 32.3643 8.32617 32.5107 8.34961C32.6631 8.37305 32.7773 8.39941 32.8535 8.42871ZM33.5479 13.3506V13.1484C33.5479 12.4629 33.6475 11.8271 33.8467 11.2412C34.0459 10.6494 34.333 10.1367 34.708 9.70312C35.0889 9.26367 35.5518 8.92383 36.0967 8.68359C36.6475 8.4375 37.2686 8.31445 37.96 8.31445C38.6572 8.31445 39.2783 8.4375 39.8232 8.68359C40.374 8.92383 40.8398 9.26367 41.2207 9.70312C41.6016 10.1367 41.8916 10.6494 42.0908 11.2412C42.29 11.8271 42.3896 12.4629 42.3896 13.1484V13.3506C42.3896 14.0361 42.29 14.6719 42.0908 15.2578C41.8916 15.8438 41.6016 16.3564 41.2207 16.7959C40.8398 17.2295 40.377 17.5693 39.832 17.8154C39.2871 18.0557 38.6689 18.1758 37.9775 18.1758C37.2803 18.1758 36.6562 18.0557 36.1055 17.8154C35.5605 17.5693 35.0977 17.2295 34.7168 16.7959C34.3359 16.3564 34.0459 15.8438 33.8467 15.2578C33.6475 14.6719 33.5479 14.0361 33.5479 13.3506ZM35.666 13.1484V13.3506C35.666 13.7783 35.71 14.1826 35.7979 14.5635C35.8857 14.9443 36.0234 15.2783 36.2109 15.5654C36.3984 15.8525 36.6387 16.0781 36.9316 16.2422C37.2246 16.4062 37.5732 16.4883 37.9775 16.4883C38.3701 16.4883 38.71 16.4062 38.9971 16.2422C39.29 16.0781 39.5303 15.8525 39.7178 15.5654C39.9053 15.2783 40.043 14.9443 40.1309 14.5635C40.2246 14.1826 40.2715 13.7783 40.2715 13.3506V13.1484C40.2715 12.7266 40.2246 12.3281 40.1309 11.9531C40.043 11.5723 39.9023 11.2354 39.709 10.9424C39.5215 10.6494 39.2812 10.4209 38.9883 10.2568C38.7012 10.0869 38.3584 10.002 37.96 10.002C37.5615 10.002 37.2158 10.0869 36.9229 10.2568C36.6357 10.4209 36.3984 10.6494 36.2109 10.9424C36.0234 11.2354 35.8857 11.5723 35.7979 11.9531C35.71 12.3281 35.666 12.7266 35.666 13.1484ZM49.9658 16.0312V4.5H52.0928V18H50.168L49.9658 16.0312ZM43.7783 13.3506V13.166C43.7783 12.4453 43.8633 11.7891 44.0332 11.1973C44.2031 10.5996 44.4492 10.0869 44.7715 9.65918C45.0938 9.22559 45.4863 8.89453 45.9492 8.66602C46.4121 8.43164 46.9336 8.31445 47.5137 8.31445C48.0879 8.31445 48.5918 8.42578 49.0254 8.64844C49.459 8.87109 49.8281 9.19043 50.1328 9.60645C50.4375 10.0166 50.6807 10.5088 50.8623 11.083C51.0439 11.6514 51.1729 12.2842 51.249 12.9814V13.5703C51.1729 14.25 51.0439 14.8711 50.8623 15.4336C50.6807 15.9961 50.4375 16.4824 50.1328 16.8926C49.8281 17.3027 49.4561 17.6191 49.0166 17.8418C48.583 18.0645 48.0762 18.1758 47.4961 18.1758C46.9219 18.1758 46.4033 18.0557 45.9404 17.8154C45.4834 17.5752 45.0938 17.2383 44.7715 16.8047C44.4492 16.3711 44.2031 15.8613 44.0332 15.2754C43.8633 14.6836 43.7783 14.042 43.7783 13.3506ZM45.8965 13.166V13.3506C45.8965 13.7842 45.9346 14.1885 46.0107 14.5635C46.0928 14.9385 46.2188 15.2695 46.3887 15.5566C46.5586 15.8379 46.7783 16.0605 47.0479 16.2246C47.3232 16.3828 47.6514 16.4619 48.0322 16.4619C48.5127 16.4619 48.9082 16.3564 49.2188 16.1455C49.5293 15.9346 49.7725 15.6504 49.9482 15.293C50.1299 14.9297 50.2529 14.5254 50.3174 14.0801V12.4893C50.2822 12.1436 50.209 11.8213 50.0977 11.5225C49.9922 11.2236 49.8486 10.9629 49.667 10.7402C49.4854 10.5117 49.2598 10.3359 48.9902 10.2129C48.7266 10.084 48.4131 10.0195 48.0498 10.0195C47.6631 10.0195 47.335 10.1016 47.0654 10.2656C46.7959 10.4297 46.5732 10.6553 46.3975 10.9424C46.2275 11.2295 46.1016 11.5635 46.0195 11.9443C45.9375 12.3252 45.8965 12.7324 45.8965 13.166ZM60.0293 15.7588V8.49023H62.1562V18H60.1523L60.0293 15.7588ZM60.3281 13.7812L61.04 13.7637C61.04 14.4023 60.9697 14.9912 60.8291 15.5303C60.6885 16.0635 60.4717 16.5293 60.1787 16.9277C59.8857 17.3203 59.5107 17.6279 59.0537 17.8506C58.5967 18.0674 58.0488 18.1758 57.4102 18.1758C56.9473 18.1758 56.5225 18.1084 56.1357 17.9736C55.749 17.8389 55.415 17.6309 55.1338 17.3496C54.8584 17.0684 54.6445 16.7021 54.4922 16.251C54.3398 15.7998 54.2637 15.2607 54.2637 14.6338V8.49023H56.3818V14.6514C56.3818 14.9971 56.4229 15.2871 56.5049 15.5215C56.5869 15.75 56.6982 15.9346 56.8389 16.0752C56.9795 16.2158 57.1436 16.3154 57.3311 16.374C57.5186 16.4326 57.7178 16.4619 57.9287 16.4619C58.5322 16.4619 59.0068 16.3447 59.3525 16.1104C59.7041 15.8701 59.9531 15.5479 60.0996 15.1436C60.252 14.7393 60.3281 14.2852 60.3281 13.7812ZM68.2119 16.4883C68.5576 16.4883 68.8682 16.4209 69.1436 16.2861C69.4248 16.1455 69.6504 15.9521 69.8203 15.7061C69.9961 15.46 70.0928 15.1758 70.1104 14.8535H72.1055C72.0938 15.4688 71.9121 16.0283 71.5605 16.5322C71.209 17.0361 70.7432 17.4375 70.1631 17.7363C69.583 18.0293 68.9414 18.1758 68.2383 18.1758C67.5117 18.1758 66.8789 18.0527 66.3398 17.8066C65.8008 17.5547 65.3525 17.209 64.9951 16.7695C64.6377 16.3301 64.3682 15.8232 64.1865 15.249C64.0107 14.6748 63.9229 14.0596 63.9229 13.4033V13.0957C63.9229 12.4395 64.0107 11.8242 64.1865 11.25C64.3682 10.6699 64.6377 10.1602 64.9951 9.7207C65.3525 9.28125 65.8008 8.93848 66.3398 8.69238C66.8789 8.44043 67.5088 8.31445 68.2295 8.31445C68.9912 8.31445 69.6592 8.4668 70.2334 8.77148C70.8076 9.07031 71.2588 9.48926 71.5869 10.0283C71.9209 10.5615 72.0938 11.1826 72.1055 11.8916H70.1104C70.0928 11.54 70.0049 11.2236 69.8467 10.9424C69.6943 10.6553 69.4775 10.4268 69.1963 10.2568C68.9209 10.0869 68.5898 10.002 68.2031 10.002C67.7754 10.002 67.4209 10.0898 67.1396 10.2656C66.8584 10.4355 66.6387 10.6699 66.4805 10.9688C66.3223 11.2617 66.208 11.5928 66.1377 11.9619C66.0732 12.3252 66.041 12.7031 66.041 13.0957V13.4033C66.041 13.7959 66.0732 14.1768 66.1377 14.5459C66.2021 14.915 66.3135 15.2461 66.4717 15.5391C66.6357 15.8262 66.8584 16.0576 67.1396 16.2334C67.4209 16.4033 67.7783 16.4883 68.2119 16.4883ZM78.0908 8.49023V10.0371H72.7295V8.49023H78.0908ZM74.2764 6.16113H76.3945V15.3721C76.3945 15.665 76.4355 15.8906 76.5176 16.0488C76.6055 16.2012 76.7256 16.3037 76.8779 16.3564C77.0303 16.4092 77.209 16.4355 77.4141 16.4355C77.5605 16.4355 77.7012 16.4268 77.8359 16.4092C77.9707 16.3916 78.0791 16.374 78.1611 16.3564L78.1699 17.9736C77.9941 18.0264 77.7891 18.0732 77.5547 18.1143C77.3262 18.1553 77.0625 18.1758 76.7637 18.1758C76.2773 18.1758 75.8467 18.0908 75.4717 17.9209C75.0967 17.7451 74.8037 17.4609 74.5928 17.0684C74.3818 16.6758 74.2764 16.1543 74.2764 15.5039V6.16113ZM83.8037 13.3506V13.1484C83.8037 12.4629 83.9033 11.8271 84.1025 11.2412C84.3018 10.6494 84.5889 10.1367 84.9639 9.70312C85.3447 9.26367 85.8076 8.92383 86.3525 8.68359C86.9033 8.4375 87.5244 8.31445 88.2158 8.31445C88.9131 8.31445 89.5342 8.4375 90.0791 8.68359C90.6299 8.92383 91.0957 9.26367 91.4766 9.70312C91.8574 10.1367 92.1475 10.6494 92.3467 11.2412C92.5459 11.8271 92.6455 12.4629 92.6455 13.1484V13.3506C92.6455 14.0361 92.5459 14.6719 92.3467 15.2578C92.1475 15.8438 91.8574 16.3564 91.4766 16.7959C91.0957 17.2295 90.6328 17.5693 90.0879 17.8154C89.543 18.0557 88.9248 18.1758 88.2334 18.1758C87.5361 18.1758 86.9121 18.0557 86.3613 17.8154C85.8164 17.5693 85.3535 17.2295 84.9727 16.7959C84.5918 16.3564 84.3018 15.8438 84.1025 15.2578C83.9033 14.6719 83.8037 14.0361 83.8037 13.3506ZM85.9219 13.1484V13.3506C85.9219 13.7783 85.9658 14.1826 86.0537 14.5635C86.1416 14.9443 86.2793 15.2783 86.4668 15.5654C86.6543 15.8525 86.8945 16.0781 87.1875 16.2422C87.4805 16.4062 87.8291 16.4883 88.2334 16.4883C88.626 16.4883 88.9658 16.4062 89.2529 16.2422C89.5459 16.0781 89.7861 15.8525 89.9736 15.5654C90.1611 15.2783 90.2988 14.9443 90.3867 14.5635C90.4805 14.1826 90.5273 13.7783 90.5273 13.3506V13.1484C90.5273 12.7266 90.4805 12.3281 90.3867 11.9531C90.2988 11.5723 90.1582 11.2354 89.9648 10.9424C89.7773 10.6494 89.5371 10.4209 89.2441 10.2568C88.957 10.0869 88.6143 10.002 88.2158 10.002C87.8174 10.002 87.4717 10.0869 87.1787 10.2568C86.8916 10.4209 86.6543 10.6494 86.4668 10.9424C86.2793 11.2354 86.1416 11.5723 86.0537 11.9531C85.9658 12.3281 85.9219 12.7266 85.9219 13.1484ZM97.2861 18H95.168V7.57617C95.168 6.86719 95.2998 6.27246 95.5635 5.79199C95.833 5.30566 96.2168 4.93945 96.7148 4.69336C97.2129 4.44141 97.8018 4.31543 98.4814 4.31543C98.6924 4.31543 98.9004 4.33008 99.1055 4.35938C99.3105 4.38281 99.5098 4.4209 99.7031 4.47363L99.6504 6.1084C99.5332 6.0791 99.4043 6.05859 99.2637 6.04688C99.1289 6.03516 98.9824 6.0293 98.8242 6.0293C98.502 6.0293 98.2236 6.09082 97.9893 6.21387C97.7607 6.33105 97.585 6.50391 97.4619 6.73242C97.3447 6.96094 97.2861 7.24219 97.2861 7.57617V18ZM99.2461 8.49023V10.0371H93.709V8.49023H99.2461ZM111.999 0.9375H115.351L119.159 12.8086L122.968 0.9375H126.319L120.519 18H117.8L111.999 0.9375ZM109.96 0.9375H113.429L114.073 14.0156V18H109.96V0.9375ZM124.89 0.9375H128.37V18H124.245V14.0156L124.89 0.9375ZM145.444 9.12891V9.82031C145.444 11.125 145.261 12.2969 144.894 13.3359C144.534 14.3672 144.022 15.25 143.358 15.9844C142.694 16.7109 141.909 17.2695 141.003 17.6602C140.097 18.043 139.097 18.2344 138.003 18.2344C136.901 18.2344 135.894 18.043 134.979 17.6602C134.073 17.2695 133.284 16.7109 132.612 15.9844C131.948 15.25 131.433 14.3672 131.065 13.3359C130.706 12.2969 130.526 11.125 130.526 9.82031V9.12891C130.526 7.82422 130.706 6.65234 131.065 5.61328C131.433 4.57422 131.944 3.69141 132.601 2.96484C133.265 2.23047 134.05 1.67188 134.956 1.28906C135.87 0.898438 136.878 0.703125 137.979 0.703125C139.073 0.703125 140.073 0.898438 140.979 1.28906C141.894 1.67188 142.683 2.23047 143.347 2.96484C144.011 3.69141 144.526 4.57422 144.894 5.61328C145.261 6.65234 145.444 7.82422 145.444 9.12891ZM141.272 9.82031V9.10547C141.272 8.26172 141.198 7.51953 141.05 6.87891C140.909 6.23047 140.698 5.6875 140.417 5.25C140.136 4.8125 139.788 4.48438 139.374 4.26562C138.968 4.03906 138.503 3.92578 137.979 3.92578C137.433 3.92578 136.956 4.03906 136.55 4.26562C136.144 4.48438 135.804 4.8125 135.53 5.25C135.257 5.6875 135.05 6.23047 134.909 6.87891C134.776 7.51953 134.71 8.26172 134.71 9.10547V9.82031C134.71 10.6562 134.776 11.3984 134.909 12.0469C135.05 12.6875 135.257 13.2305 135.53 13.6758C135.812 14.1211 136.155 14.457 136.562 14.6836C136.976 14.9102 137.456 15.0234 138.003 15.0234C138.526 15.0234 138.991 14.9102 139.397 14.6836C139.804 14.457 140.144 14.1211 140.417 13.6758C140.698 13.2305 140.909 12.6875 141.05 12.0469C141.198 11.3984 141.272 10.6562 141.272 9.82031ZM153.12 18H149.335L149.358 14.8359H153.12C153.901 14.8359 154.562 14.6484 155.101 14.2734C155.647 13.8984 156.062 13.3398 156.343 12.5977C156.632 11.8477 156.776 10.9258 156.776 9.83203V9.09375C156.776 8.27344 156.694 7.55469 156.53 6.9375C156.374 6.3125 156.14 5.79297 155.827 5.37891C155.515 4.95703 155.124 4.64062 154.655 4.42969C154.194 4.21875 153.663 4.11328 153.062 4.11328H149.265V0.9375H153.062C154.218 0.9375 155.276 1.13672 156.237 1.53516C157.206 1.92578 158.042 2.48828 158.745 3.22266C159.456 3.94922 160.003 4.8125 160.386 5.8125C160.776 6.80469 160.972 7.90625 160.972 9.11719V9.83203C160.972 11.0352 160.776 12.1367 160.386 13.1367C160.003 14.1367 159.46 15 158.757 15.7266C158.054 16.4531 157.222 17.0156 156.261 17.4141C155.308 17.8047 154.261 18 153.12 18ZM151.69 0.9375V18H147.577V0.9375H151.69Z" fill="white"/>
</svg>
